<svg xmlns="http://www.w3.org/2000/svg" width="81" height="75" viewBox="0 0 81 75">
  <g id="Grupo_2698" data-name="Grupo 2698" transform="translate(0.059)">
    <path id="Icon_awesome-instagram" data-name="Icon awesome-instagram" d="M21,12.469A10.768,10.768,0,1,0,31.765,23.238,10.75,10.75,0,0,0,21,12.469Zm0,17.769a7,7,0,1,1,7-7A7.013,7.013,0,0,1,21,30.238Zm13.717-18.21a2.511,2.511,0,1,1-2.511-2.512A2.506,2.506,0,0,1,34.717,12.029Zm7.13,2.549c-.159-3.365-.928-6.345-3.392-8.8s-5.434-3.224-8.8-3.393c-3.467-.2-13.858-.2-17.325,0-3.354.159-6.334.928-8.8,3.383S.311,11.2.142,14.569c-.2,3.468-.2,13.861,0,17.329.159,3.365.928,6.345,3.392,8.8s5.434,3.224,8.8,3.393c3.467.2,13.858.2,17.325,0,3.364-.159,6.343-.928,8.8-3.393s3.223-5.436,3.392-8.8c.2-3.468.2-13.852,0-17.319Zm-4.479,21.04a7.087,7.087,0,0,1-3.992,3.992c-2.764,1.1-9.323.843-12.377.843s-9.623.244-12.377-.843A7.087,7.087,0,0,1,4.63,35.618c-1.1-2.765-.843-9.325-.843-12.38s-.244-9.625.843-12.38A7.087,7.087,0,0,1,8.622,6.865c2.764-1.1,9.323-.843,12.377-.843s9.623-.244,12.377.843a7.087,7.087,0,0,1,3.992,3.992c1.1,2.765.843,9.325.843,12.38S38.465,32.863,37.368,35.618Z" transform="translate(18.205 -2.238)" fill="#1873b9"/>
    <text id="Instagram" transform="translate(-0.059 71)" fill="#889fb4" font-size="18" font-family="Helvetica"><tspan x="0" y="0">Instagram</tspan></text>
  </g>
</svg>
