<svg xmlns="http://www.w3.org/2000/svg" width="58.991" height="32.966" viewBox="0 0 58.991 32.966">
  <path id="Icon_payment-mastercard-alt" data-name="Icon payment-mastercard-alt" d="M64.111,32.833a15.632,15.632,0,0,0-2.337-8.309,19.666,19.666,0,0,0-6.425-5.994,19.823,19.823,0,0,0-8.907-2.18,17.641,17.641,0,0,0-10.659,3.405,16.405,16.405,0,0,1,5.548,8.582H39.726a15.554,15.554,0,0,0-5.11-7.765,15.537,15.537,0,0,0-5.11,7.765H27.9a16.393,16.393,0,0,1,5.548-8.582A17.652,17.652,0,0,0,22.788,16.35a19.812,19.812,0,0,0-8.907,2.18,19.638,19.638,0,0,0-6.425,5.994,15.945,15.945,0,0,0,0,16.619,19.618,19.618,0,0,0,6.425,5.994,19.788,19.788,0,0,0,8.907,2.18,17.641,17.641,0,0,0,10.659-3.405,17.085,17.085,0,0,1-5.4-7.9h1.606a16.524,16.524,0,0,0,4.965,7.084A16.548,16.548,0,0,0,39.58,38.01h1.606a17.126,17.126,0,0,1-5.4,7.9,17.627,17.627,0,0,0,10.659,3.405,19.794,19.794,0,0,0,8.907-2.18,19.645,19.645,0,0,0,6.425-5.994,15.634,15.634,0,0,0,2.336-8.31ZM12.859,28.882h2.775l-1.46,7.9H12.422l1.022-5.994-2.336,5.994H9.793V30.789L8.625,36.783H6.873l1.46-7.9h2.628v4.9Zm8.177,3.27a6.045,6.045,0,0,1-.146,1.226c-.1.636-.2,1.226-.292,1.771a8.6,8.6,0,0,1-.292,1.226v.409h-1.46V36.1a2.173,2.173,0,0,1-1.9.818,1.641,1.641,0,0,1-1.168-.409,2.1,2.1,0,0,1-.438-1.362,2.06,2.06,0,0,1,.73-1.771,4.371,4.371,0,0,1,2.482-.681h.73v-.41c0-.362-.39-.545-1.168-.545a8.75,8.75,0,0,0-1.9.272c.095-.362.194-.818.292-1.362a6.321,6.321,0,0,1,2.044-.409q2.483,0,2.483,1.907Zm-2.044,1.771h-.438c-.974,0-1.46.32-1.46.953,0,.456.194.681.584.681a1.012,1.012,0,0,0,.876-.409A1.6,1.6,0,0,0,18.992,33.923Zm7.155-3.542-.292,1.5a4.8,4.8,0,0,0-1.314-.136c-.584,0-.876.183-.876.545a.525.525,0,0,0,.146.409l.584.272a2.02,2.02,0,0,1,1.314,1.771q0,2.181-2.775,2.18a9.23,9.23,0,0,1-1.9-.137c.095-.362.194-.862.292-1.5a8.429,8.429,0,0,0,1.606.272c.679,0,1.022-.181,1.022-.545a.542.542,0,0,0-.146-.409,1.9,1.9,0,0,0-.73-.409,1.842,1.842,0,0,1-1.314-1.771q0-2.177,2.628-2.18a7.275,7.275,0,0,1,1.753.137Zm2.774,0H29.8l-.146,1.634H28.629a4.814,4.814,0,0,1-.146,1.226,3.985,3.985,0,0,1-.073.545,1.034,1.034,0,0,1-.219.545v.545c0,.364.194.545.584.545a1.366,1.366,0,0,0,.584-.136l-.292,1.5a4.723,4.723,0,0,1-1.314.137q-1.461,0-1.46-1.362a5.994,5.994,0,0,1,.292-1.771l.73-4.359h1.752l-.145.955Zm6.571,2.18a8.032,8.032,0,0,1-.146,1.634H31.7a1.256,1.256,0,0,0,.292.953,1.866,1.866,0,0,0,1.314.409,4.073,4.073,0,0,0,1.9-.545l-.292,1.634a5.5,5.5,0,0,1-1.9.272q-3.067,0-3.067-2.861a3.887,3.887,0,0,1,.876-2.724,2.847,2.847,0,0,1,4.088-.409,2.144,2.144,0,0,1,.584,1.635Zm-3.651.272h2.045v-.409l-.146-.272a.394.394,0,0,0-.146-.272.424.424,0,0,1-.292-.136h-.292q-.876,0-1.168,1.09Zm8.177-2.452a9.731,9.731,0,0,0-.73,1.907c-.39-.089-.73.136-1.022.681a25.2,25.2,0,0,0-.73,3.814h-1.9l.146-.409q.581-3.812.876-5.994h1.752l-.146.953a1.815,1.815,0,0,1,.876-.818.666.666,0,0,1,.876-.136Zm6.132-1.226-.292,1.634a3.844,3.844,0,0,0-1.606-.409A2.005,2.005,0,0,0,42.5,31.2a3.316,3.316,0,0,0-.584,2.18,1.8,1.8,0,0,0,.438,1.362,1.417,1.417,0,0,0,1.168.545,3.846,3.846,0,0,0,1.606-.409l-.292,1.771a3.856,3.856,0,0,1-1.606.272,3.018,3.018,0,0,1-2.336-.953,3.2,3.2,0,0,1-.876-2.452,5.037,5.037,0,0,1,1.168-3.405,3.433,3.433,0,0,1,2.92-1.362,7.472,7.472,0,0,1,2.044.409Zm5.257,3a4,4,0,0,1-.073.545,3.788,3.788,0,0,0-.073.681c-.1.456-.2,1.069-.292,1.839a9.043,9.043,0,0,1-.292,1.567h-1.46V36.1a2.173,2.173,0,0,1-1.9.818,1.641,1.641,0,0,1-1.168-.409,2.1,2.1,0,0,1-.438-1.362,2.06,2.06,0,0,1,.73-1.771A4.114,4.114,0,0,1,48.78,32.7h.73a.538.538,0,0,0,.146-.409c0-.362-.39-.545-1.168-.545a8.75,8.75,0,0,0-1.9.272,4.156,4.156,0,0,1,.292-1.362,6.321,6.321,0,0,1,2.045-.409q2.481,0,2.481,1.907Zm-2.044,1.771h-.438c-.974,0-1.46.32-1.46.953,0,.456.194.681.584.681a1.012,1.012,0,0,0,.876-.409A1.6,1.6,0,0,0,49.363,33.923Zm6.57-3.542a3.483,3.483,0,0,0-.73,1.907c-.39-.089-.73.136-1.022.681a25.8,25.8,0,0,0-.73,3.814h-1.9l.146-.409q.578-2.978.876-5.994h1.752a2.875,2.875,0,0,1-.146.953,1.815,1.815,0,0,1,.876-.818,1.109,1.109,0,0,1,.876-.136Zm4.527-1.5h1.9l-1.46,7.9H59.147l.146-.545a2,2,0,0,1-1.606.681,1.757,1.757,0,0,1-1.606-.681,3.114,3.114,0,0,1-.73-1.907,4.015,4.015,0,0,1,1.022-2.861,2.326,2.326,0,0,1,2.045-1.09,2.6,2.6,0,0,1,1.752.818l.292-2.316Zm-.73,4.223c0-.818-.343-1.226-1.022-1.226a1.234,1.234,0,0,0-1.022.681,2.717,2.717,0,0,0-.292,1.5q0,1.226.876,1.226a1.288,1.288,0,0,0,1.022-.545,2.569,2.569,0,0,0,.437-1.635Z" transform="translate(-5.12 -16.35)" fill="#fff"/>
</svg>
