<svg id="g4158" xmlns="http://www.w3.org/2000/svg" width="75.531" height="27.262" viewBox="0 0 75.531 27.262">
  <path id="polygon9" d="M439.626,137.117h-6.119l3.827-26.39h6.118Z" transform="translate(-406.895 -110.248)" fill="#fff"/>
  <path id="path11" d="M583.533,106.171a13.724,13.724,0,0,0-5.488-1.123c-6.042,0-10.3,3.593-10.323,8.731-.05,3.79,3.046,5.9,5.362,7.159,2.367,1.291,3.172,2.134,3.172,3.285-.024,1.768-1.913,2.583-3.674,2.583a11.142,11.142,0,0,1-5.741-1.4l-.806-.422-.856,5.924a16.949,16.949,0,0,0,6.824,1.4c6.42,0,10.6-3.538,10.649-9.012.025-3-1.611-5.306-5.136-7.187-2.14-1.207-3.451-2.022-3.451-3.257.025-1.123,1.108-2.274,3.524-2.274a9.489,9.489,0,0,1,4.558,1.01l.553.28.832-5.7Z" transform="translate(-528.622 -105.048)" fill="#fff"/>
  <path id="path13" d="M799.988,127.768c.5-1.516,2.443-7.384,2.443-7.384-.025.056.5-1.544.805-2.527l.427,2.274s1.159,6.317,1.41,7.636Zm7.553-17.041h-4.733a3.007,3.007,0,0,0-3.2,2.19l-9.088,24.2h6.42s1.057-3.257,1.284-3.959h7.856c.176.926.73,3.959.73,3.959h5.665l-4.936-26.39Z" transform="translate(-736.946 -110.248)" fill="#fff"/>
  <path id="path15" d="M180.942,110.727l-5.992,18-.655-3.65a19.779,19.779,0,0,0-8.459-11.062l5.489,23.078h6.47l9.617-26.362Z" transform="translate(-159.441 -110.248)" fill="#fff"/>
  <path id="path17" d="M91.111,110.727H81.266l-.1.533A21.271,21.271,0,0,1,96.02,125.074l-2.14-12.129a2.574,2.574,0,0,0-2.769-2.218Z" transform="translate(-81.166 -110.248)" fill="#faa61a"/>
</svg>
